<svg version="1.2" xmlns="http://www.w3.org/2000/svg" viewBox="0 0 525 525" width="525" height="525">
	<title>Arcof_logo_vertical branca-svg</title>
	<style>
		.s0 { fill: #0e0e0e } 
	</style>
	<g id="Pasta 1">
		<path id="Layer" class="s0" d="m262.3 54.4l215.1 124.2v248.3l33.3 19.2v-286.7l-248.4-143.4-248.4 143.4v286.7l33.3-19.2v-248.3z"/>
		<path id="Layer" class="s0" d="m369.2 241l-33.3 19.3-56.9-32.9v189.2l-16.7 9.6-16.6-9.6v-189.3l-57 33-33.3-19.3 106.9-61.7z"/>
		<path id="Layer" class="s0" d="m350.2 331.4l89.7-51.9v125.8l-177.6 102.6-177.6-102.6v-205.1l177.6-102.5 177.6 102.5-33.2 19.2-144.4-83.3-144.4 83.3v166.7l144.4 83.3 144.4-83.3v-48.9l-23.3 13.4z"/>
	</g>
</svg>